<svg width="30" height="28" viewBox="0 0 30 28" fill="none" xmlns="http://www.w3.org/2000/svg">
<g clip-path="url(#clip0_172_181)">
<path d="M28.125 11.5293H1.875C0.839473 11.5293 0 12.6354 0 13.9999C0 15.3644 0.839473 16.4705 1.875 16.4705H28.125C29.1605 16.4705 30 15.3644 30 13.9999C30 12.6354 29.1605 11.5293 28.125 11.5293Z" fill="white"/>
<path d="M1.875 4.94119H28.125C29.1605 4.94119 30 3.83505 30 2.47059C30 1.10613 29.1605 0 28.125 0H1.875C0.839473 0 0 1.10613 0 2.47059C0 3.83505 0.839473 4.94119 1.875 4.94119Z" fill="white"/>
<path d="M28.125 23.0588H1.875C0.839473 23.0588 0 24.165 0 25.5294C0 26.8939 0.839473 28 1.875 28H28.125C29.1605 28 30 26.8939 30 25.5294C30 24.165 29.1605 23.0588 28.125 23.0588Z" fill="white"/>
</g>
<defs>
<clipPath id="clip0_172_181">
<rect width="30" height="28" fill="white"/>
</clipPath>
</defs>
</svg>
