<svg width="30" height="30" viewBox="0 0 30 30" fill="none" xmlns="http://www.w3.org/2000/svg">
<g clip-path="url(#clip0_172_185)">
<path d="M17.6511 15L29.4507 3.20171C30.1831 2.46926 30.1831 1.28173 29.4507 0.549338C28.7182 -0.183113 27.5307 -0.183113 26.7983 0.549338L15 12.3488L3.20171 0.549338C2.46926 -0.183113 1.28173 -0.183113 0.549338 0.549338C-0.183054 1.28179 -0.183113 2.46932 0.549338 3.20171L12.3488 15L0.549338 26.7983C-0.183113 27.5307 -0.183113 28.7183 0.549338 29.4507C1.28179 30.1831 2.46932 30.1831 3.20171 29.4507L15 17.6511L26.7982 29.4507C27.5307 30.1831 28.7182 30.1831 29.4506 29.4507C30.1831 28.7182 30.1831 27.5307 29.4506 26.7983L17.6511 15Z" fill="white"/>
</g>
<defs>
<clipPath id="clip0_172_185">
<rect width="30" height="30" fill="white"/>
</clipPath>
</defs>
</svg>
